<mxfile host="app.diagrams.net" modified="2023-11-01T09:26:25.095Z" agent="Mozilla/5.0 (Macintosh; Intel Mac OS X 10_15_7) AppleWebKit/537.36 (KHTML, like Gecko) Chrome/118.0.0.0 Safari/537.36" version="21.8.0" etag="1SwFGce6GrvrU9eMYNr4" type="github">
  <diagram name="第 1 页" id="TZTDNrEt7QrFTUbkaapI">
    <mxGraphModel>
      <root>
        <mxCell id="0" />
        <mxCell id="1" parent="0" />
      </root>
    </mxGraphModel>
  </diagram>
</mxfile>
